
<?xml version="1.0" encoding="UTF-8" standalone="no"?>
<!DOCTYPE svg PUBLIC "-//W3C//DTD SVG 1.1//EN" "http://www.w3.org/Graphics/SVG/1.1/DTD/svg11.dtd">
<svg version="1.1" xmlns="http://www.w3.org/2000/svg" xmlns:xlink="http://www.w3.org/1999/xlink" preserveAspectRatio="xMidYMid meet" viewBox="0 0 640 640" width="640" height="640"><defs><path d="M48.86 69.43L166.86 69.43L166.86 179.43L48.86 179.43L48.86 69.43Z" id="a1iI9oVPY1"></path><path d="M159.86 259.43L95.86 295.43L95.86 367.43L159.86 403.43L223.86 367.43L223.86 295.43L159.86 259.43Z" id="d4TOmlGmX"></path><path d="M375.34 173.69L378.19 174.02L381.01 174.48L383.79 175.05L386.53 175.75L389.23 176.57L391.89 177.51L394.5 178.56L397.06 179.72L399.57 180.99L402.03 182.36L404.43 183.84L406.78 185.42L409.07 187.1L411.29 188.87L413.45 190.74L415.55 192.69L417.57 194.74L419.53 196.87L421.41 199.08L423.22 201.38L424.94 203.75L426.59 206.19L428.16 208.71L429.64 211.3L431.04 213.96L432.34 216.68L433.56 219.46L434.68 222.31L435.7 225.21L436.63 228.16L437.45 231.17L438.18 234.23L438.8 237.33L439.31 240.48L439.71 243.67L440 246.9L440.17 250.16L440.23 253.46L440.17 256.76L440 260.02L439.71 263.25L439.31 266.44L438.8 269.59L438.18 272.69L437.45 275.75L436.63 278.76L435.7 281.71L434.68 284.61L433.56 287.46L432.34 290.24L431.04 292.96L429.64 295.62L428.21 298.12L472.86 348.66L453.63 370.43L408.99 319.88L406.78 321.5L404.43 323.08L402.03 324.56L399.57 325.93L397.06 327.2L394.5 328.36L391.89 329.41L389.23 330.35L386.53 331.17L383.79 331.87L381.01 332.44L378.19 332.9L375.34 333.23L372.46 333.42L369.54 333.49L366.63 333.42L363.75 333.23L360.9 332.9L358.08 332.44L355.3 331.87L352.56 331.17L349.86 330.35L347.2 329.41L344.59 328.36L342.03 327.2L339.52 325.93L337.06 324.56L334.66 323.08L332.31 321.5L330.02 319.82L327.8 318.05L325.64 316.18L323.54 314.23L321.52 312.18L319.56 310.05L317.68 307.84L315.87 305.54L314.14 303.17L312.5 300.73L310.93 298.21L309.45 295.62L308.05 292.96L306.75 290.24L305.53 287.46L304.41 284.61L303.39 281.71L302.46 278.76L301.63 275.75L300.91 272.69L300.29 269.59L299.78 266.44L299.38 263.25L299.09 260.02L298.92 256.76L298.86 253.46L298.92 250.16L299.09 246.9L299.38 243.67L299.78 240.48L300.29 237.33L300.91 234.23L301.63 231.17L302.46 228.16L303.39 225.21L304.41 222.31L305.53 219.46L306.75 216.68L308.05 213.96L309.45 211.3L310.93 208.71L312.5 206.19L314.14 203.75L315.87 201.38L317.68 199.08L319.56 196.87L321.52 194.74L323.54 192.69L325.64 190.74L327.8 188.87L330.02 187.1L332.31 185.42L334.66 183.84L337.06 182.36L339.52 180.99L342.03 179.72L344.59 178.56L347.2 177.51L349.86 176.57L352.56 175.75L355.3 175.05L358.08 174.48L360.9 174.02L363.75 173.69L366.63 173.5L369.54 173.43L372.46 173.5L375.34 173.69ZM365.97 204.24L364.21 204.44L362.47 204.73L360.75 205.08L359.06 205.51L357.4 206.02L355.76 206.6L354.15 207.24L352.57 207.96L351.02 208.74L349.5 209.59L348.02 210.5L346.57 211.48L345.16 212.51L343.79 213.61L342.45 214.76L341.16 215.97L339.91 217.23L338.7 218.54L337.54 219.91L336.43 221.32L335.36 222.79L334.34 224.3L333.38 225.85L332.46 227.45L331.6 229.09L330.8 230.77L330.05 232.48L329.36 234.24L328.72 236.03L328.15 237.85L327.64 239.71L327.2 241.59L326.82 243.51L326.5 245.45L326.25 247.42L326.07 249.41L325.97 251.42L325.93 253.46L325.97 255.5L326.07 257.51L326.25 259.5L326.5 261.47L326.82 263.41L327.2 265.33L327.64 267.21L328.15 269.07L328.72 270.89L329.36 272.68L330.05 274.44L330.8 276.15L331.6 277.83L332.46 279.47L333.38 281.07L334.34 282.62L335.36 284.13L336.43 285.6L337.54 287.01L338.7 288.38L339.91 289.69L341.16 290.95L342.45 292.16L343.79 293.31L345.16 294.41L346.57 295.44L348.02 296.42L349.5 297.33L351.02 298.18L352.57 298.96L354.15 299.68L355.76 300.32L357.4 300.9L359.06 301.41L360.75 301.84L362.47 302.19L364.21 302.47L365.97 302.68L367.75 302.8L369.54 302.84L371.34 302.8L373.12 302.68L374.88 302.47L376.62 302.19L378.33 301.84L380.03 301.41L381.69 300.9L383.33 300.32L384.94 299.68L386.52 298.96L388.07 298.18L389.59 297.33L391.07 296.42L392.52 295.44L393.93 294.41L395.3 293.31L396.64 292.16L397.93 290.95L399.18 289.69L400.39 288.38L401.55 287.01L402.66 285.6L403.73 284.13L404.74 282.62L405.71 281.07L406.63 279.47L407.49 277.83L408.29 276.15L409.04 274.44L409.73 272.68L410.37 270.89L410.94 269.07L411.45 267.21L411.89 265.33L412.27 263.41L412.59 261.47L412.84 259.5L413.02 257.51L413.12 255.5L413.16 253.46L413.12 251.42L413.02 249.41L412.84 247.42L412.59 245.45L412.27 243.51L411.89 241.59L411.45 239.71L410.94 237.85L410.37 236.03L409.73 234.24L409.04 232.48L408.29 230.77L407.49 229.09L406.63 227.45L405.71 225.85L404.74 224.3L403.73 222.79L402.66 221.32L401.55 219.91L400.39 218.54L399.18 217.23L397.93 215.97L396.64 214.76L395.3 213.61L393.93 212.51L392.52 211.48L391.07 210.5L389.59 209.59L388.07 208.74L386.52 207.96L384.94 207.24L383.33 206.6L381.69 206.02L380.03 205.51L378.33 205.08L376.62 204.73L374.88 204.44L373.12 204.24L371.34 204.12L369.54 204.08L367.75 204.12L365.97 204.24Z" id="aqvjNmJXY"></path></defs><g><g><g><use xlink:href="#a1iI9oVPY1" opacity="1" fill="#4d1346" fill-opacity="1"></use></g><g><use xlink:href="#d4TOmlGmX" opacity="1" fill="#c8f0ed" fill-opacity="1"></use></g><g><use xlink:href="#aqvjNmJXY" opacity="1" fill="#e81a38" fill-opacity="1"></use></g></g></g></svg>
